# xmcd CD database file
#
# Track frame offsets:
#	150
#	26947
#	32250
#	57045
#	63505
#	70472
#	78350
#	97277
#	108087
#	120777
#	131095
#	136420
#	142867
#	164185
#	175877
#	194192
#	211502
#
# Disc length: 2912 seconds
#
# Revision: 0
# Processed by: cddbd v1.5.1PL0 Copyright (c) Steve Scherf et al.
# Submitted via: CDex 1.51
#
DISCID=f50b5e11
DTITLE=Klaus Dickbauer - solo works '89-93
DYEAR=1995
DGENRE=Jazz
TTITLE0=Shuffunk
TTITLE1=Duo No. 1
TTITLE2=Fugax
TTITLE3=Duo No. 2
TTITLE4=Funk The Duck
TTITLE5=Twelve And Eight
TTITLE6=Last Wedding
TTITLE7=Klap O Funk
TTITLE8=Simple Song
TTITLE9=F. P
TTITLE10=Im Busch der Welser Haidi
TTITLE11=Soprano
TTITLE12=On Promillade
TTITLE13=Twelve And Seven
TTITLE14=Walz Ab
TTITLE15=Erkenntnisse eines drittel Jahrhunderts
TTITLE16=Letztes Duo
EXTD=YEAR: 1995
EXTT0=
EXTT1=
EXTT2=
EXTT3=
EXTT4=
EXTT5=
EXTT6=
EXTT7=
EXTT8=
EXTT9=
EXTT10=
EXTT11=
EXTT12=
EXTT13=
EXTT14=
EXTT15=
EXTT16=
PLAYORDER=
